<svg xmlns="http://www.w3.org/2000/svg" viewBox="0 0 200 200">
  <defs>
    <radialGradient id="bodyGrad" cx="50%" cy="40%" r="50%">
      <stop offset="0%" stop-color="#ffffff"/>
      <stop offset="100%" stop-color="#e8e8e8"/>
    </radialGradient>
  </defs>
  <!-- Ghost body -->
  <path d="M100 20 C55 20 30 60 30 100 C30 130 30 160 30 180 Q45 165 55 180 Q65 195 75 180 Q85 165 100 180 Q115 165 125 180 Q135 195 145 180 Q155 165 170 180 C170 160 170 130 170 100 C170 60 145 20 100 20Z" fill="url(#bodyGrad)" stroke="none"/>
  <!-- Left eye -->
  <ellipse cx="75" cy="85" rx="18" ry="20" fill="#1a1a2e"/>
  <ellipse cx="80" cy="80" rx="6" ry="7" fill="#fff"/>
  <!-- Right eye -->
  <ellipse cx="125" cy="85" rx="18" ry="20" fill="#1a1a2e"/>
  <ellipse cx="130" cy="80" rx="6" ry="7" fill="#fff"/>
  <!-- Mouth -->
  <path d="M80 120 Q100 145 120 120" fill="none" stroke="#1a1a2e" stroke-width="3" stroke-linecap="round"/>
  <!-- Tongue -->
  <ellipse cx="108" cy="132" rx="10" ry="14" fill="#e94560"/>
  <path d="M108 125 Q108 146 108 146" fill="none" stroke="#c4304d" stroke-width="1.5"/>
  <!-- Cheek blush (subtle) -->
  <ellipse cx="60" cy="110" rx="10" ry="6" fill="#ffa5b5" opacity="0.3"/>
  <ellipse cx="140" cy="110" rx="10" ry="6" fill="#ffa5b5" opacity="0.3"/>
</svg>
